<svg width="60" height="57" viewBox="0 0 60 57" fill="none" xmlns="http://www.w3.org/2000/svg">
<path fill-rule="evenodd" clip-rule="evenodd" d="M22.9766 35.708C32.4821 35.708 45.12 36.7784 45.12 46.0388C45.12 55.7936 30.394 56.3789 24.0774 56.4141L21.784 56.4141C15.049 56.3791 0.833313 55.7971 0.833313 46.0971C0.833313 36.3313 15.5592 35.7454 21.8759 35.7102L22.6348 35.708C22.7531 35.708 22.8671 35.708 22.9766 35.708ZM22.9766 40.083C14.8712 40.083 5.20831 41.1242 5.20831 46.0971C5.20831 50.0405 11.1875 52.0413 22.9766 52.0413C34.7658 52.0413 40.745 50.02 40.745 46.0388C40.745 42.0867 34.7658 40.083 22.9766 40.083ZM49.5612 34.3456C57.4537 35.5268 59.1074 39.1814 59.1074 42.0368C59.1074 44.1631 58.1887 47.0418 53.8049 48.7014C53.5512 48.7977 53.2887 48.8443 53.0291 48.8443C52.1454 48.8443 51.3141 48.3048 50.9845 47.4327C50.5558 46.3039 51.1245 45.0381 52.2533 44.6123C54.7324 43.6731 54.7324 42.5268 54.7324 42.0368C54.7324 40.3831 52.7754 39.2514 48.9166 38.6768C47.7208 38.496 46.8954 37.3818 47.0733 36.1889C47.2541 34.9931 48.3887 34.191 49.5612 34.3456ZM22.9766 0.833374C31.2337 0.833374 37.9539 7.55337 37.9539 15.8105C37.9712 19.7888 36.4283 23.5455 33.6166 26.3746C30.8108 29.2067 27.0629 30.773 23.0758 30.7875H22.9766C14.7166 30.7875 7.99665 24.0675 7.99665 15.8105C7.99665 7.55337 14.7166 0.833374 22.9766 0.833374ZM43.6488 4.11112C49.3801 5.05029 53.5392 9.95321 53.5392 15.7661C53.5276 21.614 49.1613 26.6365 43.3805 27.4474C43.2784 27.462 43.1763 27.4678 43.0742 27.4678C42.0009 27.4678 41.0646 26.6774 40.9101 25.5836C40.7438 24.3878 41.5751 23.2795 42.7709 23.1132C46.4109 22.6028 49.1584 19.444 49.1642 15.7632C49.1642 12.1057 46.5451 9.01987 42.943 8.43071C41.7501 8.23237 40.9421 7.10946 41.1376 5.91654C41.333 4.72362 42.4617 3.92154 43.6488 4.11112ZM22.9766 5.20837C17.1287 5.20837 12.3716 9.96546 12.3716 15.8105C12.3716 21.6555 17.1287 26.4125 22.9766 26.4125H23.0671C25.8787 26.4009 28.5271 25.2955 30.5133 23.2917C32.5025 21.2938 33.5904 18.6367 33.5788 15.8192C33.5788 9.96546 28.8216 5.20837 22.9766 5.20837Z" fill="#FD6F00"/>
</svg>
