<svg width="514" height="66" viewBox="0 0 514 66" fill="none" xmlns="http://www.w3.org/2000/svg">
<path d="M22.11 44.1C23.8133 44.1 25.3417 43.82 26.695 43.26C28.0483 42.6767 29.1917 41.86 30.125 40.81C31.0583 39.76 31.77 38.4883 32.26 36.995C32.75 35.5017 32.995 33.8217 32.995 31.955V1.715H43.495V31.955C43.495 35.035 42.9933 37.87 41.99 40.46C41.01 43.0267 39.5983 45.2433 37.755 47.11C35.9117 48.9767 33.6717 50.435 31.035 51.485C28.3983 52.535 25.4233 53.06 22.11 53.06C18.7967 53.06 15.81 52.535 13.15 51.485C10.5133 50.435 8.27333 48.9767 6.43 47.11C4.58667 45.2433 3.16333 43.0267 2.16 40.46C1.18 37.87 0.69 35.035 0.69 31.955V1.715H11.19V31.955C11.19 33.8217 11.435 35.5017 11.925 36.995C12.415 38.4883 13.1267 39.76 14.06 40.81C14.9933 41.86 16.1367 42.6767 17.49 43.26C18.8433 43.82 20.3833 44.1 22.11 44.1ZM66.1482 52.5H55.5782V1.715H66.1482V52.5ZM84.6446 52.36C84.2013 53.5267 83.4896 54.4017 82.5096 54.985C81.5529 55.5917 80.5729 55.895 79.5696 55.895H75.4746L95.6696 3.64C96.0663 2.59 96.6963 1.77333 97.5596 1.19C98.4229 0.606664 99.4146 0.314998 100.535 0.314998H104.665L84.6446 52.36ZM134.777 44.1C136.481 44.1 138.009 43.82 139.362 43.26C140.716 42.6767 141.859 41.86 142.792 40.81C143.726 39.76 144.437 38.4883 144.927 36.995C145.417 35.5017 145.662 33.8217 145.662 31.955V1.715H156.162V31.955C156.162 35.035 155.661 37.87 154.657 40.46C153.677 43.0267 152.266 45.2433 150.422 47.11C148.579 48.9767 146.339 50.435 143.702 51.485C141.066 52.535 138.091 53.06 134.777 53.06C131.464 53.06 128.477 52.535 125.817 51.485C123.181 50.435 120.941 48.9767 119.097 47.11C117.254 45.2433 115.831 43.0267 114.827 40.46C113.847 37.87 113.357 35.035 113.357 31.955V1.715H123.857V31.955C123.857 33.8217 124.102 35.5017 124.592 36.995C125.082 38.4883 125.794 39.76 126.727 40.81C127.661 41.86 128.804 42.6767 130.157 43.26C131.511 43.82 133.051 44.1 134.777 44.1ZM210.56 52.5H200.06C199.36 52.5 198.789 52.325 198.345 51.975C197.925 51.625 197.587 51.2167 197.33 50.75L186.34 32.06C186.224 32.3167 186.107 32.5733 185.99 32.83C185.897 33.0633 185.78 33.285 185.64 33.495L175.21 50.75C174.907 51.1933 174.545 51.6017 174.125 51.975C173.729 52.325 173.215 52.5 172.585 52.5H162.785L179.41 26.355L163.415 1.715H173.915C174.615 1.715 175.129 1.80833 175.455 1.995C175.782 2.18166 176.074 2.485 176.33 2.905L187.25 20.86C187.367 20.58 187.495 20.3 187.635 20.02C187.775 19.7167 187.939 19.4133 188.125 19.11L197.925 3.08C198.205 2.61333 198.509 2.275 198.835 2.065C199.185 1.83166 199.605 1.715 200.095 1.715H210.14L194.005 25.9L210.56 52.5ZM257.6 25.795C256.69 24.745 255.698 24.01 254.625 23.59C253.575 23.17 252.455 22.96 251.265 22.96C250.098 22.96 249.037 23.1817 248.08 23.625C247.123 24.0683 246.295 24.7683 245.595 25.725C244.918 26.6583 244.393 27.86 244.02 29.33C243.647 30.8 243.46 32.55 243.46 34.58C243.46 36.5867 243.612 38.29 243.915 39.69C244.218 41.09 244.65 42.2217 245.21 43.085C245.793 43.9483 246.493 44.5783 247.31 44.975C248.127 45.3483 249.037 45.535 250.04 45.535C251.743 45.535 253.167 45.1967 254.31 44.52C255.477 43.8433 256.573 42.8867 257.6 41.65V25.795ZM267.26 0.314998V52.5H261.31C260.073 52.5 259.28 51.94 258.93 50.82L258.125 47.67C257.402 48.4633 256.632 49.1867 255.815 49.84C255.022 50.4933 254.158 51.065 253.225 51.555C252.292 52.0217 251.288 52.3833 250.215 52.64C249.142 52.8967 247.975 53.025 246.715 53.025C244.778 53.025 243.005 52.6167 241.395 51.8C239.785 50.9833 238.385 49.7933 237.195 48.23C236.028 46.6433 235.118 44.7067 234.465 42.42C233.812 40.1333 233.485 37.52 233.485 34.58C233.485 31.8967 233.847 29.4 234.57 27.09C235.317 24.78 236.367 22.785 237.72 21.105C239.073 19.425 240.707 18.1067 242.62 17.15C244.533 16.1933 246.657 15.715 248.99 15.715C250.95 15.715 252.595 16.0067 253.925 16.59C255.278 17.1733 256.503 17.9667 257.6 18.97V0.314998H267.26ZM300.285 30.205C300.285 29.2017 300.145 28.245 299.865 27.335C299.608 26.425 299.188 25.62 298.605 24.92C298.022 24.22 297.287 23.6717 296.4 23.275C295.513 22.855 294.452 22.645 293.215 22.645C290.905 22.645 289.097 23.2983 287.79 24.605C286.483 25.9117 285.632 27.7783 285.235 30.205H300.285ZM285.095 35.945C285.398 39.3283 286.355 41.8017 287.965 43.365C289.598 44.9283 291.722 45.71 294.335 45.71C295.665 45.71 296.808 45.5583 297.765 45.255C298.745 44.9283 299.597 44.5783 300.32 44.205C301.067 43.8083 301.732 43.4583 302.315 43.155C302.922 42.8283 303.517 42.665 304.1 42.665C304.847 42.665 305.43 42.945 305.85 43.505L308.65 47.005C307.623 48.195 306.492 49.1867 305.255 49.98C304.018 50.75 302.735 51.3683 301.405 51.835C300.075 52.2783 298.733 52.5817 297.38 52.745C296.027 52.9317 294.72 53.025 293.46 53.025C290.94 53.025 288.583 52.6167 286.39 51.8C284.22 50.96 282.318 49.735 280.685 48.125C279.075 46.4917 277.803 44.4733 276.87 42.07C275.937 39.6667 275.47 36.8783 275.47 33.705C275.47 31.255 275.867 28.945 276.66 26.775C277.477 24.605 278.643 22.715 280.16 21.105C281.677 19.495 283.52 18.2233 285.69 17.29C287.86 16.3333 290.31 15.855 293.04 15.855C295.35 15.855 297.473 16.2283 299.41 16.975C301.37 17.6983 303.05 18.76 304.45 20.16C305.873 21.56 306.97 23.2867 307.74 25.34C308.533 27.37 308.93 29.6917 308.93 32.305C308.93 33.0283 308.895 33.6233 308.825 34.09C308.755 34.5567 308.638 34.93 308.475 35.21C308.312 35.49 308.09 35.6883 307.81 35.805C307.53 35.8983 307.168 35.945 306.725 35.945H285.095ZM339.459 23.835C339.203 24.2317 338.934 24.5233 338.654 24.71C338.398 24.8733 338.036 24.955 337.569 24.955C337.103 24.955 336.624 24.8383 336.134 24.605C335.644 24.3717 335.096 24.1267 334.489 23.87C333.883 23.59 333.183 23.3333 332.389 23.1C331.619 22.8667 330.721 22.75 329.694 22.75C328.131 22.75 326.918 23.0767 326.054 23.73C325.191 24.36 324.759 25.2 324.759 26.25C324.759 26.9733 325.004 27.58 325.494 28.07C325.984 28.56 326.626 28.9917 327.419 29.365C328.236 29.715 329.158 30.0533 330.184 30.38C331.211 30.6833 332.261 31.0217 333.334 31.395C334.431 31.7683 335.493 32.2 336.519 32.69C337.546 33.18 338.456 33.7983 339.249 34.545C340.066 35.2683 340.719 36.155 341.209 37.205C341.699 38.2317 341.944 39.48 341.944 40.95C341.944 42.7 341.618 44.3217 340.964 45.815C340.334 47.285 339.401 48.5567 338.164 49.63C336.928 50.7033 335.388 51.5433 333.544 52.15C331.701 52.7567 329.578 53.06 327.174 53.06C325.938 53.06 324.713 52.9433 323.499 52.71C322.286 52.5 321.131 52.1967 320.034 51.8C318.938 51.38 317.911 50.9017 316.954 50.365C315.998 49.8283 315.169 49.245 314.469 48.615L316.709 45.01C316.966 44.59 317.281 44.2633 317.654 44.03C318.051 43.7967 318.553 43.68 319.159 43.68C319.743 43.68 320.279 43.8317 320.769 44.135C321.259 44.415 321.808 44.73 322.414 45.08C323.021 45.4067 323.733 45.7217 324.549 46.025C325.389 46.305 326.428 46.445 327.664 46.445C328.598 46.445 329.403 46.34 330.079 46.13C330.756 45.92 331.304 45.64 331.724 45.29C332.144 44.9167 332.448 44.5083 332.634 44.065C332.844 43.5983 332.949 43.12 332.949 42.63C332.949 41.8367 332.693 41.195 332.179 40.705C331.689 40.1917 331.036 39.7483 330.219 39.375C329.426 39.0017 328.504 38.6633 327.454 38.36C326.404 38.0567 325.331 37.7183 324.234 37.345C323.161 36.9717 322.099 36.5283 321.049 36.015C320.023 35.5017 319.101 34.86 318.284 34.09C317.491 33.2967 316.838 32.3283 316.324 31.185C315.834 30.0417 315.589 28.6533 315.589 27.02C315.589 25.5267 315.881 24.115 316.464 22.785C317.048 21.4317 317.923 20.2417 319.089 19.215C320.256 18.1883 321.703 17.3717 323.429 16.765C325.179 16.1583 327.198 15.855 329.484 15.855C332.051 15.855 334.384 16.275 336.484 17.115C338.584 17.955 340.311 19.0517 341.664 20.405L339.459 23.835ZM360.031 16.415V52.5H350.371V16.415H360.031ZM361.186 6.16C361.186 6.97666 361.023 7.735 360.696 8.435C360.37 9.135 359.926 9.75333 359.366 10.29C358.829 10.8267 358.188 11.2467 357.441 11.55C356.718 11.8533 355.936 12.005 355.096 12.005C354.303 12.005 353.544 11.8533 352.821 11.55C352.121 11.2467 351.503 10.8267 350.966 10.29C350.429 9.75333 349.998 9.135 349.671 8.435C349.368 7.735 349.216 6.97666 349.216 6.16C349.216 5.34333 349.368 4.585 349.671 3.885C349.998 3.16166 350.429 2.53166 350.966 1.995C351.503 1.45833 352.121 1.03833 352.821 0.734997C353.544 0.431663 354.303 0.279996 355.096 0.279996C355.936 0.279996 356.718 0.431663 357.441 0.734997C358.188 1.03833 358.829 1.45833 359.366 1.995C359.926 2.53166 360.37 3.16166 360.696 3.885C361.023 4.585 361.186 5.34333 361.186 6.16ZM383.815 33.11C385.798 33.11 387.256 32.6083 388.19 31.605C389.146 30.6017 389.625 29.3067 389.625 27.72C389.625 26.0633 389.146 24.7683 388.19 23.835C387.256 22.8783 385.798 22.4 383.815 22.4C381.831 22.4 380.373 22.8783 379.44 23.835C378.506 24.7683 378.04 26.0633 378.04 27.72C378.04 29.2833 378.506 30.5783 379.44 31.605C380.396 32.6083 381.855 33.11 383.815 33.11ZM392.95 53.97C392.95 53.34 392.751 52.8267 392.355 52.43C391.958 52.0333 391.421 51.7183 390.745 51.485C390.091 51.2517 389.31 51.0883 388.4 50.995C387.49 50.8783 386.521 50.7967 385.495 50.75C384.468 50.68 383.406 50.6217 382.31 50.575C381.213 50.5283 380.14 50.4467 379.09 50.33C378.273 50.82 377.596 51.4033 377.06 52.08C376.546 52.7333 376.29 53.48 376.29 54.32C376.29 54.9033 376.418 55.44 376.675 55.93C376.955 56.42 377.41 56.84 378.04 57.19C378.67 57.54 379.498 57.8083 380.525 57.995C381.551 58.205 382.835 58.31 384.375 58.31C385.961 58.31 387.303 58.205 388.4 57.995C389.496 57.785 390.383 57.4817 391.06 57.085C391.736 56.7117 392.215 56.2567 392.495 55.72C392.798 55.1833 392.95 54.6 392.95 53.97ZM402.54 17.605V21.14C402.54 21.7 402.376 22.1433 402.05 22.47C401.746 22.7967 401.233 23.0417 400.51 23.205L397.57 23.8C397.966 24.9433 398.165 26.1683 398.165 27.475C398.165 29.2717 397.791 30.8933 397.045 32.34C396.321 33.7633 395.318 34.9883 394.035 36.015C392.751 37.0183 391.235 37.8 389.485 38.36C387.735 38.8967 385.845 39.165 383.815 39.165C382.531 39.165 381.33 39.06 380.21 38.85C379.23 39.4567 378.74 40.1217 378.74 40.845C378.74 41.5217 379.066 42.0117 379.72 42.315C380.396 42.6183 381.271 42.84 382.345 42.98C383.441 43.0967 384.678 43.1783 386.055 43.225C387.455 43.2483 388.866 43.3183 390.29 43.435C391.736 43.5517 393.148 43.7617 394.525 44.065C395.925 44.345 397.161 44.8233 398.235 45.5C399.331 46.1533 400.206 47.0283 400.86 48.125C401.536 49.2217 401.875 50.6333 401.875 52.36C401.875 53.97 401.478 55.5333 400.685 57.05C399.891 58.5667 398.736 59.92 397.22 61.11C395.726 62.3 393.883 63.2567 391.69 63.98C389.496 64.7033 387 65.065 384.2 65.065C381.423 65.065 379.008 64.7967 376.955 64.26C374.925 63.7467 373.233 63.0467 371.88 62.16C370.55 61.2967 369.558 60.2933 368.905 59.15C368.251 58.0067 367.925 56.8167 367.925 55.58C367.925 53.97 368.415 52.605 369.395 51.485C370.375 50.365 371.728 49.4667 373.455 48.79C372.545 48.2767 371.81 47.6117 371.25 46.795C370.713 45.955 370.445 44.87 370.445 43.54C370.445 42.4667 370.83 41.335 371.6 40.145C372.393 38.955 373.606 37.9633 375.24 37.17C373.396 36.19 371.938 34.8833 370.865 33.25C369.791 31.5933 369.255 29.6683 369.255 27.475C369.255 25.6783 369.616 24.0567 370.34 22.61C371.086 21.1633 372.113 19.9383 373.42 18.935C374.726 17.9083 376.266 17.1267 378.04 16.59C379.813 16.0533 381.738 15.785 383.815 15.785C386.895 15.785 389.613 16.3917 391.97 17.605H402.54ZM418.622 20.615C419.346 19.915 420.092 19.2733 420.862 18.69C421.656 18.1067 422.484 17.605 423.347 17.185C424.234 16.765 425.179 16.4383 426.182 16.205C427.209 15.9717 428.317 15.855 429.507 15.855C431.467 15.855 433.206 16.1933 434.722 16.87C436.239 17.5467 437.511 18.4917 438.537 19.705C439.587 20.9183 440.369 22.365 440.882 24.045C441.419 25.725 441.687 27.5683 441.687 29.575V52.5H432.062V29.575C432.062 27.5683 431.596 26.0167 430.662 24.92C429.729 23.8 428.352 23.24 426.532 23.24C425.179 23.24 423.907 23.5317 422.717 24.115C421.527 24.6983 420.396 25.515 419.322 26.565V52.5H409.662V16.415H415.612C416.826 16.415 417.631 16.975 418.027 18.095L418.622 20.615ZM474.369 30.205C474.369 29.2017 474.229 28.245 473.949 27.335C473.692 26.425 473.272 25.62 472.689 24.92C472.106 24.22 471.371 23.6717 470.484 23.275C469.597 22.855 468.536 22.645 467.299 22.645C464.989 22.645 463.181 23.2983 461.874 24.605C460.567 25.9117 459.716 27.7783 459.319 30.205H474.369ZM459.179 35.945C459.482 39.3283 460.439 41.8017 462.049 43.365C463.682 44.9283 465.806 45.71 468.419 45.71C469.749 45.71 470.892 45.5583 471.849 45.255C472.829 44.9283 473.681 44.5783 474.404 44.205C475.151 43.8083 475.816 43.4583 476.399 43.155C477.006 42.8283 477.601 42.665 478.184 42.665C478.931 42.665 479.514 42.945 479.934 43.505L482.734 47.005C481.707 48.195 480.576 49.1867 479.339 49.98C478.102 50.75 476.819 51.3683 475.489 51.835C474.159 52.2783 472.817 52.5817 471.464 52.745C470.111 52.9317 468.804 53.025 467.544 53.025C465.024 53.025 462.667 52.6167 460.474 51.8C458.304 50.96 456.402 49.735 454.769 48.125C453.159 46.4917 451.887 44.4733 450.954 42.07C450.021 39.6667 449.554 36.8783 449.554 33.705C449.554 31.255 449.951 28.945 450.744 26.775C451.561 24.605 452.727 22.715 454.244 21.105C455.761 19.495 457.604 18.2233 459.774 17.29C461.944 16.3333 464.394 15.855 467.124 15.855C469.434 15.855 471.557 16.2283 473.494 16.975C475.454 17.6983 477.134 18.76 478.534 20.16C479.957 21.56 481.054 23.2867 481.824 25.34C482.617 27.37 483.014 29.6917 483.014 32.305C483.014 33.0283 482.979 33.6233 482.909 34.09C482.839 34.5567 482.722 34.93 482.559 35.21C482.396 35.49 482.174 35.6883 481.894 35.805C481.614 35.8983 481.252 35.945 480.809 35.945H459.179ZM500.173 22.365C501.317 20.3117 502.635 18.69 504.128 17.5C505.622 16.31 507.372 15.715 509.378 15.715C511.012 15.715 512.342 16.1 513.368 16.87L512.738 24.01C512.622 24.4767 512.435 24.8033 512.178 24.99C511.945 25.1533 511.618 25.235 511.198 25.235C510.825 25.235 510.288 25.1883 509.588 25.095C508.888 24.9783 508.235 24.92 507.628 24.92C506.742 24.92 505.948 25.0483 505.248 25.305C504.572 25.5617 503.965 25.9233 503.428 26.39C502.892 26.8567 502.402 27.4283 501.958 28.105C501.538 28.7817 501.142 29.5517 500.768 30.415V52.5H491.108V16.415H496.813C497.793 16.415 498.47 16.59 498.843 16.94C499.217 17.29 499.485 17.8967 499.648 18.76L500.173 22.365Z" fill="url(#paint0_linear_587_661)"/>
<defs>
<linearGradient id="paint0_linear_587_661" x1="-4" y1="17.9" x2="464.844" y2="42.0001" gradientUnits="userSpaceOnUse">
<stop stop-color="#984300"/>
<stop offset="0.463542" stop-color="#FD6F00"/>
<stop offset="1" stop-color="#CA5900"/>
</linearGradient>
</defs>
</svg>
